HIERARCHY
ROOT Hips
{
  OFFSET 279.157 85.6768 304.565
  CHANNELS 6 Xposition Yposition Zposition Zrotation Xrotation Yrotation
  JOINT LeftUpLeg
  {
    OFFSET 8.64259 1.95398 -2.38835
    CHANNELS 3 Zrotation Xrotation Yrotation
    JOINT LeftLeg
    {
      OFFSET 43.7702 0 0
      CHANNELS 3 Zrotation Xrotation Yrotation
      JOINT LeftFoot
      {
        OFFSET 40.6238 0 0
        CHANNELS 3 Zrotation Xrotation Yrotation
        JOINT LeftToeBase
        {
          OFFSET 12.7242 0 0
          CHANNELS 3 Zrotation Xrotation Yrotation
          End Site
          {
            OFFSET 0 0 0
          }
        }
      }
    }
  }
  JOINT RightUpLeg
  {
    OFFSET -8.2249 1.95398 -2.59336
    CHANNELS 3 Zrotation Xrotation Yrotation
    JOINT RightLeg
    {
      OFFSET 43.5653 0 0
      CHANNELS 3 Zrotation Xrotation Yrotation
      JOINT RightFoot
      {
        OFFSET 40.6238 0 0
        CHANNELS 3 Zrotation Xrotation Yrotation
        JOINT RightToeBase
        {
          OFFSET 12.7242 0 0
          CHANNELS 3 Zrotation Xrotation Yrotation
          End Site
          {
            OFFSET 0 0 0
          }
        }
      }
    }
  }
  JOINT Spine
  {
    OFFSET 0.165834 0.87714 6.61349
    CHANNELS 3 Zrotation Xrotation Yrotation
    JOINT Spine1
    {
      OFFSET 7.38963 1.71661e-005 0
      CHANNELS 3 Zrotation Xrotation Yrotation
      JOINT Spine2
      {
        OFFSET 11.9445 1.14441e-005 0
        CHANNELS 3 Zrotation Xrotation Yrotation
        JOINT Spine3
        {
          OFFSET 14.7254 4.19617e-005 0
          CHANNELS 3 Zrotation Xrotation Yrotation
          JOINT Spine4
          {
            OFFSET 10.9679 0 0
            CHANNELS 3 Zrotation Xrotation Yrotation
            JOINT RightShoulder
            {
              OFFSET 2.46616 -1.6653 3.69651
              CHANNELS 3 Zrotation Xrotation Yrotation
              JOINT RightArm
              {
                OFFSET 13.0012 0 0
                CHANNELS 3 Zrotation Xrotation Yrotation
                JOINT RightForeArm
                {
                  OFFSET 28.7848 1.52588e-005 0
                  CHANNELS 3 Zrotation Xrotation Yrotation
                  JOINT RightHand
                  {
                    OFFSET 26.5688 1.52588e-005 0
                    CHANNELS 3 Zrotation Xrotation Yrotation
                    End Site
                    {
                      OFFSET 0 0 0
                    }
                  }
                }
              }
            }
            JOINT LeftShoulder
            {
              OFFSET 2.38034 -1.29275 -3.7523
              CHANNELS 3 Zrotation Xrotation Yrotation
              JOINT LeftArm
              {
                OFFSET 16.3182 6.10351e-005 0
                CHANNELS 3 Zrotation Xrotation Yrotation
                JOINT LeftForeArm
                {
                  OFFSET 27.0901 0 0
                  CHANNELS 3 Zrotation Xrotation Yrotation
                  JOINT LeftHand
                  {
                    OFFSET 24.5451 1.52588e-005 0
                    CHANNELS 3 Zrotation Xrotation Yrotation
                    End Site
                    {
                      OFFSET 0 0 0
                    }
                  }
                }
              }
            }
            JOINT Neck
            {
              OFFSET 5.0226 -0.0266342 0
              CHANNELS 3 Zrotation Xrotation Yrotation
              JOINT Head
              {
                OFFSET 6.69364 2.86102e-005 0
                CHANNELS 3 Zrotation Xrotation Yrotation
                End Site
                {
                  OFFSET 0 0 0
                }
              }
            }
          }
        }
      }
    }
  }
}
MOTION
Frames:	6
Frame Time:	0.0416667
217.289 104.113 -221.52 -98.8654 -50.4373 -97.6467 -175.938 -1.95105 87.7671 -11.4141 7.13142 0.924927 69.8651 4.97712 -3.42534 14.0713 -10.4942 5.83185 173.488 -5.04449 89.4304 -9.13995 -4.88504 0.373578 66.9395 -4.26532 -0.652976 22.9002 1.12935 4.86821 0.497154 7.58309 -90.0371 11.7088 0.971482 -0.175789 0.0381955 0.962822 -0.218391 -22.4998 0.979395 0.124344 -2.48721 0.979404 0.124329 87.5732 -32.0504 -110.637 41.2585 -9.45902 -7.80576 5.94529 -24.1551 -11.004 -23.333 -0.826158 -7.07428 -90.3875 -52.6583 78.7221 -25.3316 12.4054 -15.0274 -0.516044 -1.03726 -4.84949 -4.68049 0.0953355 -13.5764 6.58873 3.93546 -1.59283 -9.69927 4.13293 0.817571 
217.303 104.125 -221.547 -98.5171 -50.3847 -97.2264 -175.816 -1.60281 88.0074 -11.6567 7.54819 0.845635 69.8159 4.91248 -3.49179 14.2113 -10.3848 5.79125 173.597 -4.72064 89.5994 -9.3311 -4.41916 0.426457 66.876 -4.06754 -0.103944 22.9474 1.19153 4.45032 0.475007 7.51245 -90.0536 11.8501 0.919462 -0.205069 0.179471 0.909525 -0.24534 -22.3583 0.938572 0.0807736 -2.34564 0.938565 0.0807723 87.3419 -32.0223 -111.088 41.4497 -9.36122 -7.29356 4.2739 -22.3029 -12.0731 -23.8178 -0.979277 -5.60012 -90.2307 -52.6367 78.9449 -25.4218 12.8117 -14.3245 -0.678376 -2.05782 -5.39457 -3.91929 0.0212977 -11.8462 4.93818 4.48012 -1.64825 -7.50971 4.69972 0.324353 
217.228 104.07 -221.569 -98.8159 -50.4126 -97.3963 -175.859 -1.38238 88.0927 -12.6614 11.5985 0.99374 68.9588 5.18599 -0.26436 16.4967 -9.55076 7.3608 173.664 -5.3888 89.7524 -8.52253 -4.69779 0.417172 66.9402 -4.46914 -0.748302 22.4839 1.27108 4.78191 0.47099 7.52703 -90.0482 11.8209 0.914029 -0.19337 0.150273 0.904623 -0.233416 -22.3875 0.929873 0.0903 -2.37481 0.929891 0.0903053 87.5208 -32.5152 -110.54 41.3297 -9.48914 -7.43321 5.08586 -23.2696 -11.4084 -23.7842 -0.873183 -6.50195 -90.1721 -52.6664 79.0361 -25.2919 12.7983 -14.3995 -0.659598 -1.64703 -5.38991 -3.09841 -0.0460331 -10.4374 5.05283 4.28156 -1.93115 -7.69944 4.55188 0.417612 
217.252 104.093 -221.624 -98.7775 -50.3098 -97.6127 -176.012 -1.58081 87.8169 -12.1932 10.8967 1.01944 68.8833 5.12841 -0.628988 16.1188 -9.62309 6.92972 173.477 -4.92123 89.4522 -9.23508 -4.85575 0.434631 67.0215 -4.30472 -0.608748 22.7576 1.2035 4.69988 0.472714 7.53716 -90.0391 11.8006 0.92191 -0.175779 0.129956 0.913269 -0.216186 -22.4078 0.932087 0.10943 -2.39516 0.932112 0.109447 87.7303 -32.4331 -110.179 41.2823 -9.59346 -7.51486 4.59066 -23.7649 -11.9112 -22.6479 -0.928009 -6.32851 -90.2422 -52.9366 78.9904 -25.2744 12.7469 -14.3771 -0.560653 -1.43397 -5.68043 -6.21259 0.149932 -11.5463 5.50962 4.38321 -1.57608 -7.99573 4.59801 0.265214 
217.146 104.082 -221.678 -99.0094 -50.2681 -97.6131 -175.7 -1.67642 88.169 -12.3058 11.886 0.826851 68.7601 5.27822 0.221605 16.578 -9.44864 7.24028 173.652 -5.39644 89.7371 -8.70153 -5.07909 0.391144 66.8847 -4.44652 -1.04986 22.5449 1.19427 5.0926 0.476809 7.54743 -90.0517 11.7802 0.924027 -0.20096 0.10951 0.914291 -0.241442 -22.4283 0.941698 0.0860669 -2.41562 0.941687 0.086058 87.9216 -32.0909 -109.959 41.812 -9.58752 -7.5025 5.36847 -23.5513 -11.4471 -24.9118 -1.02328 -5.75241 -90.0987 -52.7612 79.1621 -25.5201 12.781 -14.4346 -0.566552 -1.72301 -5.48718 -4.7605 0.0604316 -11.6021 5.57388 4.27939 -1.76877 -8.35777 4.52091 0.478182 
217.151 104.094 -221.748 -99.0865 -50.3045 -97.7653 -175.719 -1.76378 88.1914 -12.0381 11.327 0.826785 68.5707 4.84965 -1.21165 17.3426 -9.2187 7.92793 173.548 -5.33921 89.631 -8.83013 -4.72899 0.458365 66.9634 -4.42794 -0.683135 22.6496 1.20987 4.83919 0.472257 7.55978 -90.0673 11.7555 0.907683 -0.229922 0.0848776 0.896683 -0.269661 -22.4528 0.934828 0.0535244 -2.44017 0.934819 0.0535224 88.2281 -31.7776 -109.503 42.0001 -9.54711 -7.65202 5.60633 -23.8627 -11.305 -24.7817 -0.997477 -5.98716 -90.2886 -53.286 78.9956 -25.028 12.9835 -14.4523 -0.696977 -2.05293 -5.68912 -3.6411 -0.0139523 -11.175 5.67101 4.33778 -1.2859 -8.22885 4.50347 0.202373 
